<?xml version="1.0" encoding="iso-8859-1"?>
<!-- Uploaded to: SVG Repo, www.svgrepo.com, Generator: SVG Repo Mixer Tools -->
<svg height="800px" width="800px" version="1.1" id="Capa_1" xmlns="http://www.w3.org/2000/svg" xmlns:xlink="http://www.w3.org/1999/xlink" 
	 viewBox="0 0 502.987 502.987" xml:space="preserve">
<g>
	<g>
		<g>
			<circle style="fill:#010002;" cx="185.994" cy="102.008" r="102.008"/>
			<path style="fill:#010002;" d="M334.444,261.459c-13.244,0-25.95,2.243-37.9,6.169c-25.216-32.313-65.273-53.301-110.55-53.301
				c-76.361,0.022-138.226,59.471-138.226,132.898v73.794h172.437c16.2,47.585,61.239,81.969,114.239,81.969
				c66.611,0,120.775-54.186,120.775-120.775S401.055,261.459,334.444,261.459z M240.309,382.213
				c0-51.899,42.236-94.156,94.135-94.156c51.942,0,94.178,42.257,94.178,94.156c0,51.921-42.236,94.156-94.178,94.156
				C282.545,476.369,240.309,434.134,240.309,382.213z"/>
			<path style="fill:#010002;" d="M355.778,378.74c0,0,22.994-22.93,34.427-34.362l-21.204-21.204
				c-11.389,11.411-34.384,34.427-34.384,34.427s-26.705-26.705-36.886-36.908l-21.182,21.161
				c10.181,10.181,36.929,36.886,36.929,36.886s-23.016,22.994-34.405,34.427l21.182,21.139
				c11.346-11.368,34.362-34.384,34.362-34.384s26.683,26.661,36.886,36.908l21.161-21.204
				C382.461,405.423,355.778,378.74,355.778,378.74z"/>
		</g>
	</g>
	<g>
	</g>
	<g>
	</g>
	<g>
	</g>
	<g>
	</g>
	<g>
	</g>
	<g>
	</g>
	<g>
	</g>
	<g>
	</g>
	<g>
	</g>
	<g>
	</g>
	<g>
	</g>
	<g>
	</g>
	<g>
	</g>
	<g>
	</g>
	<g>
	</g>
</g>
</svg>