<?xml version="1.0" ?><!-- Uploaded to: SVG Repo, www.svgrepo.com, Generator: SVG Repo Mixer Tools -->
<svg fill="#000000" width="800px" height="800px" viewBox="0 0 64 64" data-name="Layer 1" id="Layer_1" xmlns="http://www.w3.org/2000/svg"><title/><path d="M24.76,28.1A10.35,10.35,0,1,1,35.1,17.75,10.36,10.36,0,0,1,24.76,28.1Zm0-16.69a6.35,6.35,0,1,0,6.34,6.34A6.35,6.35,0,0,0,24.76,11.41Z"/><path d="M24.76,56.59a28.11,28.11,0,0,1-16.4-5.22,2,2,0,0,1-.83-1.43c0-.28,0-.54,0-.82a17.26,17.26,0,1,1,34.51,0,7.31,7.31,0,0,1,0,.81,2,2,0,0,1-.83,1.44c-.68.48-1.39.94-2.1,1.36a2,2,0,1,1-2-3.45c.33-.2.66-.4,1-.61a13.25,13.25,0,0,0-26.49,0,24.13,24.13,0,0,0,13.25,3.92,24.87,24.87,0,0,0,3.67-.27,2,2,0,0,1,.61,4A27.84,27.84,0,0,1,24.76,56.59Z"/><path d="M47.85,30.54a2,2,0,0,1-2-2V15.24a2,2,0,0,1,4,0v13.3A2,2,0,0,1,47.85,30.54Z"/><path d="M54.5,23.89H41.2a2,2,0,0,1,0-4H54.5a2,2,0,0,1,0,4Z"/></svg>